<mxfile host="app.diagrams.net" modified="2023-11-27T09:17:09.051Z" agent="Mozilla/5.0 (Macintosh; Intel Mac OS X 10_15_7) AppleWebKit/537.36 (KHTML, like Gecko) Chrome/119.0.0.0 Safari/537.36" etag="fSnqrAvQcYLfJB9xO5yr" version="22.1.4" type="github">
  <diagram id="07fea595-8f29-1299-0266-81d95cde20df" name="Page-1">
    <mxGraphModel dx="659" dy="488" grid="1" gridSize="10" guides="1" tooltips="1" connect="1" arrows="1" fold="1" page="1" pageScale="1" pageWidth="1169" pageHeight="827" background="#ffffff" math="0" shadow="0">
      <root>
        <mxCell id="0" />
        <mxCell id="1" parent="0" />
        <mxCell id="BD7Ygz-sJtCW-BqWoPz--244" value="" style="rounded=1;whiteSpace=wrap;html=1;fontSize=16;movable=1;resizable=1;rotatable=1;deletable=1;editable=1;locked=0;connectable=1;" vertex="1" parent="1">
          <mxGeometry y="360" width="1160" height="260" as="geometry" />
        </mxCell>
        <mxCell id="BD7Ygz-sJtCW-BqWoPz--234" value="" style="rounded=1;whiteSpace=wrap;html=1;fontSize=16;movable=1;resizable=1;rotatable=1;deletable=1;editable=1;locked=0;connectable=1;" vertex="1" parent="1">
          <mxGeometry y="120" width="1160" height="230" as="geometry" />
        </mxCell>
        <mxCell id="BD7Ygz-sJtCW-BqWoPz--230" value="&lt;b&gt;INACTIVE&lt;/b&gt;" style="shape=delay;whiteSpace=wrap;html=1;fontSize=16;" vertex="1" parent="1">
          <mxGeometry y="120" width="110" height="40" as="geometry" />
        </mxCell>
        <mxCell id="BD7Ygz-sJtCW-BqWoPz--232" value="&lt;b&gt;ACTIVE&lt;/b&gt;" style="shape=delay;whiteSpace=wrap;html=1;fontSize=16;" vertex="1" parent="1">
          <mxGeometry y="360" width="110" height="40" as="geometry" />
        </mxCell>
        <mxCell id="BD7Ygz-sJtCW-BqWoPz--246" value="" style="rounded=1;whiteSpace=wrap;html=1;fontSize=16;movable=0;resizable=0;rotatable=0;deletable=0;editable=0;locked=1;connectable=0;" vertex="1" parent="1">
          <mxGeometry y="627" width="1160" height="200" as="geometry" />
        </mxCell>
        <mxCell id="BD7Ygz-sJtCW-BqWoPz--247" value="&lt;b&gt;ALARMED&lt;/b&gt;" style="shape=delay;whiteSpace=wrap;html=1;fontSize=16;" vertex="1" parent="1">
          <mxGeometry y="627" width="110" height="40" as="geometry" />
        </mxCell>
        <mxCell id="BD7Ygz-sJtCW-BqWoPz--255" value="Idle" style="rounded=1;whiteSpace=wrap;html=1;fontSize=16;rotation=0;" vertex="1" parent="1">
          <mxGeometry x="140" y="190" width="120" height="60" as="geometry" />
        </mxCell>
        <mxCell id="BD7Ygz-sJtCW-BqWoPz--268" value="State Machine Alarm system" style="text;strokeColor=none;fillColor=none;html=1;fontSize=16;fontStyle=1;verticalAlign=middle;align=center;" vertex="1" parent="1">
          <mxGeometry x="450" y="10" width="190" height="60" as="geometry" />
        </mxCell>
        <mxCell id="BD7Ygz-sJtCW-BqWoPz--279" value="" style="endArrow=classic;html=1;rounded=0;fontSize=12;startSize=8;endSize=8;curved=1;entryX=0;entryY=0.5;entryDx=0;entryDy=0;" edge="1" parent="1" target="BD7Ygz-sJtCW-BqWoPz--287">
          <mxGeometry relative="1" as="geometry">
            <mxPoint x="260" y="219.32999999999998" as="sourcePoint" />
            <mxPoint x="580" y="220" as="targetPoint" />
          </mxGeometry>
        </mxCell>
        <mxCell id="BD7Ygz-sJtCW-BqWoPz--281" value="Enter pin code" style="edgeLabel;html=1;align=center;verticalAlign=middle;resizable=0;points=[];fontSize=16;" vertex="1" connectable="0" parent="BD7Ygz-sJtCW-BqWoPz--279">
          <mxGeometry x="-0.0771" relative="1" as="geometry">
            <mxPoint as="offset" />
          </mxGeometry>
        </mxCell>
        <mxCell id="BD7Ygz-sJtCW-BqWoPz--286" value="" style="edgeStyle=segmentEdgeStyle;endArrow=classic;html=1;curved=0;rounded=0;endSize=8;startSize=8;fontSize=12;exitX=0;exitY=0.5;exitDx=0;exitDy=0;" edge="1" parent="1" source="BD7Ygz-sJtCW-BqWoPz--288" target="BD7Ygz-sJtCW-BqWoPz--255">
          <mxGeometry width="50" height="50" relative="1" as="geometry">
            <mxPoint x="327.47" y="300.03" as="sourcePoint" />
            <mxPoint x="597.5003030303033" y="285.0018614718613" as="targetPoint" />
          </mxGeometry>
        </mxCell>
        <mxCell id="BD7Ygz-sJtCW-BqWoPz--287" value="Validate pin code" style="rhombus;whiteSpace=wrap;html=1;fontSize=16;" vertex="1" parent="1">
          <mxGeometry x="580" y="155" width="140" height="130" as="geometry" />
        </mxCell>
        <mxCell id="BD7Ygz-sJtCW-BqWoPz--288" value="Invalid pin code" style="text;html=1;strokeColor=none;fillColor=none;align=center;verticalAlign=middle;whiteSpace=wrap;rounded=0;fontSize=16;" vertex="1" parent="1">
          <mxGeometry x="340" y="285" width="120" height="30" as="geometry" />
        </mxCell>
        <mxCell id="BD7Ygz-sJtCW-BqWoPz--291" value="" style="shape=image;html=1;verticalAlign=top;verticalLabelPosition=bottom;labelBackgroundColor=#ffffff;imageAspect=0;aspect=fixed;image=https://cdn4.iconfinder.com/data/icons/essential-app-2/16/record-round-circle-dot-128.png;fontSize=16;" vertex="1" parent="1">
          <mxGeometry x="40" y="40" width="40" height="40" as="geometry" />
        </mxCell>
        <mxCell id="BD7Ygz-sJtCW-BqWoPz--296" value="" style="edgeStyle=segmentEdgeStyle;endArrow=classic;html=1;curved=0;rounded=0;endSize=8;startSize=8;fontSize=12;exitX=1;exitY=0.5;exitDx=0;exitDy=0;entryX=0.1;entryY=0.003;entryDx=0;entryDy=0;entryPerimeter=0;" edge="1" parent="1" source="BD7Ygz-sJtCW-BqWoPz--291" target="BD7Ygz-sJtCW-BqWoPz--234">
          <mxGeometry width="50" height="50" relative="1" as="geometry">
            <mxPoint x="140" y="79.97" as="sourcePoint" />
            <mxPoint x="190" y="29.97" as="targetPoint" />
          </mxGeometry>
        </mxCell>
        <mxCell id="BD7Ygz-sJtCW-BqWoPz--297" value="" style="shape=image;html=1;verticalAlign=top;verticalLabelPosition=bottom;labelBackgroundColor=#ffffff;imageAspect=0;aspect=fixed;image=https://cdn4.iconfinder.com/data/icons/essential-app-2/16/record-round-circle-dot-128.png;fontSize=16;" vertex="1" parent="1">
          <mxGeometry x="66" y="206" width="28" height="28" as="geometry" />
        </mxCell>
        <mxCell id="BD7Ygz-sJtCW-BqWoPz--298" value="" style="endArrow=classic;html=1;rounded=0;fontSize=12;startSize=8;endSize=8;curved=1;exitX=1;exitY=0.5;exitDx=0;exitDy=0;entryX=0;entryY=0.5;entryDx=0;entryDy=0;" edge="1" parent="1" source="BD7Ygz-sJtCW-BqWoPz--297" target="BD7Ygz-sJtCW-BqWoPz--255">
          <mxGeometry width="50" height="50" relative="1" as="geometry">
            <mxPoint x="210" y="280" as="sourcePoint" />
            <mxPoint x="260" y="230" as="targetPoint" />
          </mxGeometry>
        </mxCell>
        <mxCell id="BD7Ygz-sJtCW-BqWoPz--299" value="" style="endArrow=classic;html=1;rounded=0;fontSize=12;startSize=8;endSize=8;curved=1;exitX=1;exitY=0.5;exitDx=0;exitDy=0;" edge="1" parent="1" source="BD7Ygz-sJtCW-BqWoPz--287" target="BD7Ygz-sJtCW-BqWoPz--305">
          <mxGeometry relative="1" as="geometry">
            <mxPoint x="740" y="230" as="sourcePoint" />
            <mxPoint x="990" y="220" as="targetPoint" />
          </mxGeometry>
        </mxCell>
        <mxCell id="BD7Ygz-sJtCW-BqWoPz--300" value="Pin code validated" style="edgeLabel;resizable=0;html=1;align=center;verticalAlign=middle;fontSize=16;" connectable="0" vertex="1" parent="BD7Ygz-sJtCW-BqWoPz--299">
          <mxGeometry relative="1" as="geometry" />
        </mxCell>
        <mxCell id="BD7Ygz-sJtCW-BqWoPz--303" value="&amp;nbsp;Initialization failed&amp;nbsp;&amp;nbsp;" style="text;html=1;strokeColor=none;fillColor=none;align=center;verticalAlign=middle;whiteSpace=wrap;rounded=0;fontSize=16;" vertex="1" parent="1">
          <mxGeometry x="780" y="125" width="90" height="30" as="geometry" />
        </mxCell>
        <mxCell id="BD7Ygz-sJtCW-BqWoPz--305" value="Validate pin code" style="rhombus;whiteSpace=wrap;html=1;fontSize=16;" vertex="1" parent="1">
          <mxGeometry x="990" y="155" width="140" height="130" as="geometry" />
        </mxCell>
        <mxCell id="BD7Ygz-sJtCW-BqWoPz--306" value="" style="endArrow=none;html=1;rounded=0;fontSize=12;startSize=8;endSize=8;curved=1;entryX=0.5;entryY=1;entryDx=0;entryDy=0;exitX=1;exitY=0.5;exitDx=0;exitDy=0;" edge="1" parent="1" source="BD7Ygz-sJtCW-BqWoPz--288" target="BD7Ygz-sJtCW-BqWoPz--287">
          <mxGeometry width="50" height="50" relative="1" as="geometry">
            <mxPoint x="650" y="250" as="sourcePoint" />
            <mxPoint x="700" y="200" as="targetPoint" />
            <Array as="points">
              <mxPoint x="510" y="300" />
              <mxPoint x="620" y="300" />
            </Array>
          </mxGeometry>
        </mxCell>
        <mxCell id="BD7Ygz-sJtCW-BqWoPz--308" value="" style="endArrow=none;html=1;rounded=0;fontSize=12;startSize=8;endSize=8;curved=1;entryX=0.5;entryY=0;entryDx=0;entryDy=0;exitX=1;exitY=0.5;exitDx=0;exitDy=0;" edge="1" parent="1" source="BD7Ygz-sJtCW-BqWoPz--303" target="BD7Ygz-sJtCW-BqWoPz--305">
          <mxGeometry width="50" height="50" relative="1" as="geometry">
            <mxPoint x="830" y="250" as="sourcePoint" />
            <mxPoint x="880" y="200" as="targetPoint" />
            <Array as="points">
              <mxPoint x="1020" y="140" />
            </Array>
          </mxGeometry>
        </mxCell>
        <mxCell id="BD7Ygz-sJtCW-BqWoPz--309" value="" style="edgeStyle=segmentEdgeStyle;endArrow=classic;html=1;curved=0;rounded=0;endSize=8;startSize=8;fontSize=12;exitX=0;exitY=0.5;exitDx=0;exitDy=0;entryX=0.5;entryY=0;entryDx=0;entryDy=0;" edge="1" parent="1" source="BD7Ygz-sJtCW-BqWoPz--303" target="BD7Ygz-sJtCW-BqWoPz--255">
          <mxGeometry width="50" height="50" relative="1" as="geometry">
            <mxPoint x="510" y="220" as="sourcePoint" />
            <mxPoint x="560" y="170" as="targetPoint" />
          </mxGeometry>
        </mxCell>
        <mxCell id="BD7Ygz-sJtCW-BqWoPz--310" value="Initialization succes" style="text;html=1;strokeColor=none;fillColor=none;align=center;verticalAlign=middle;whiteSpace=wrap;rounded=0;fontSize=16;" vertex="1" parent="1">
          <mxGeometry x="960" y="300" width="200" height="20" as="geometry" />
        </mxCell>
        <mxCell id="BD7Ygz-sJtCW-BqWoPz--312" value="" style="endArrow=none;html=1;rounded=0;fontSize=12;startSize=8;endSize=8;curved=1;entryX=0.5;entryY=1;entryDx=0;entryDy=0;exitX=0.5;exitY=0;exitDx=0;exitDy=0;" edge="1" parent="1" source="BD7Ygz-sJtCW-BqWoPz--310" target="BD7Ygz-sJtCW-BqWoPz--305">
          <mxGeometry width="50" height="50" relative="1" as="geometry">
            <mxPoint x="860" y="335" as="sourcePoint" />
            <mxPoint x="910" y="285" as="targetPoint" />
          </mxGeometry>
        </mxCell>
        <mxCell id="BD7Ygz-sJtCW-BqWoPz--315" value="" style="endArrow=classic;html=1;rounded=0;fontSize=12;startSize=8;endSize=8;curved=1;entryX=0.914;entryY=1;entryDx=0;entryDy=0;entryPerimeter=0;exitX=0.5;exitY=1;exitDx=0;exitDy=0;" edge="1" parent="1" source="BD7Ygz-sJtCW-BqWoPz--310" target="BD7Ygz-sJtCW-BqWoPz--234">
          <mxGeometry width="50" height="50" relative="1" as="geometry">
            <mxPoint x="880" y="285" as="sourcePoint" />
            <mxPoint x="930" y="235" as="targetPoint" />
          </mxGeometry>
        </mxCell>
        <mxCell id="BD7Ygz-sJtCW-BqWoPz--316" value="" style="shape=image;html=1;verticalAlign=top;verticalLabelPosition=bottom;labelBackgroundColor=#ffffff;imageAspect=0;aspect=fixed;image=https://cdn4.iconfinder.com/data/icons/essential-app-2/16/record-round-circle-dot-128.png;fontSize=16;" vertex="1" parent="1">
          <mxGeometry x="1046" y="496" width="28" height="28" as="geometry" />
        </mxCell>
        <mxCell id="BD7Ygz-sJtCW-BqWoPz--317" value="" style="rounded=1;whiteSpace=wrap;html=1;fontSize=16;" vertex="1" parent="1">
          <mxGeometry x="490" y="410" width="410" height="200" as="geometry" />
        </mxCell>
        <mxCell id="BD7Ygz-sJtCW-BqWoPz--318" value="" style="endArrow=classic;html=1;rounded=0;fontSize=12;startSize=8;endSize=8;curved=1;exitX=0;exitY=0.5;exitDx=0;exitDy=0;entryX=1;entryY=0.5;entryDx=0;entryDy=0;" edge="1" parent="1" source="BD7Ygz-sJtCW-BqWoPz--316" target="BD7Ygz-sJtCW-BqWoPz--317">
          <mxGeometry width="50" height="50" relative="1" as="geometry">
            <mxPoint x="940" y="515" as="sourcePoint" />
            <mxPoint x="990" y="465" as="targetPoint" />
          </mxGeometry>
        </mxCell>
        <mxCell id="BD7Ygz-sJtCW-BqWoPz--319" value="" style="endArrow=none;dashed=1;html=1;dashPattern=1 3;strokeWidth=2;rounded=0;fontSize=12;startSize=8;endSize=8;curved=1;entryX=1;entryY=0.5;entryDx=0;entryDy=0;exitX=0;exitY=0.5;exitDx=0;exitDy=0;" edge="1" parent="1" source="BD7Ygz-sJtCW-BqWoPz--317" target="BD7Ygz-sJtCW-BqWoPz--317">
          <mxGeometry width="50" height="50" relative="1" as="geometry">
            <mxPoint x="790" y="530" as="sourcePoint" />
            <mxPoint x="840" y="480" as="targetPoint" />
          </mxGeometry>
        </mxCell>
        <mxCell id="BD7Ygz-sJtCW-BqWoPz--320" value="Movement sensor" style="rounded=1;whiteSpace=wrap;html=1;fontSize=16;" vertex="1" parent="1">
          <mxGeometry x="700" y="524" width="120" height="60" as="geometry" />
        </mxCell>
        <mxCell id="BD7Ygz-sJtCW-BqWoPz--321" value="Camera sensor" style="rounded=1;whiteSpace=wrap;html=1;fontSize=16;" vertex="1" parent="1">
          <mxGeometry x="700" y="436" width="120" height="60" as="geometry" />
        </mxCell>
        <mxCell id="BD7Ygz-sJtCW-BqWoPz--323" value="120 ms" style="text;html=1;strokeColor=none;fillColor=none;align=center;verticalAlign=middle;whiteSpace=wrap;rounded=0;fontSize=16;" vertex="1" parent="1">
          <mxGeometry x="630" y="414" width="60" height="30" as="geometry" />
        </mxCell>
      </root>
    </mxGraphModel>
  </diagram>
</mxfile>
